HIERARCHY
ROOT Hips
{
    OFFSET 0.000000 0.000000 0.000000
    CHANNELS 6 Xposition Yposition Zposition Zrotation Xrotation Yrotation
    JOINT Spine
    {
        OFFSET -0.000000 14.517291 0.000000
        CHANNELS 3 Zrotation Xrotation Yrotation
        JOINT Spine1
        {
            OFFSET -0.000000 37.558300 0.000000
            CHANNELS 3 Zrotation Xrotation Yrotation
            JOINT Neck
            {
                OFFSET -0.000000 37.404057 3.400369
                CHANNELS 3 Zrotation Xrotation Yrotation
                JOINT Head
                {
                    OFFSET -0.000000 24.785618 -3.540803
                    CHANNELS 3 Zrotation Xrotation Yrotation
                    End Site
                    {
                        OFFSET -0.000000 35.408028 0.000000
                    }
                }
            }
            JOINT LeftShoulder
            {
                OFFSET 6.992933 33.973492 -0.192664
                CHANNELS 3 Zrotation Xrotation Yrotation
                JOINT LeftArm
                {
                    OFFSET 21.527611 0.000000 0.000000
                    CHANNELS 3 Zrotation Xrotation Yrotation
                    JOINT LeftForeArm
                    {
                        OFFSET 56.353916 0.000000 0.000000
                        CHANNELS 3 Zrotation Xrotation Yrotation
                        JOINT LeftHand
                        {
                            OFFSET 47.774071 0.000000 0.000000
                            CHANNELS 3 Zrotation Xrotation Yrotation
                            End Site
                            {
                                OFFSET 26.556021 0.000000 0.000000
                            }
                        }
                    }
                }
            }
            JOINT RightShoulder
            {
                OFFSET -7.065357 33.973492 -0.192664
                CHANNELS 3 Zrotation Xrotation Yrotation
                JOINT RightArm
                {
                    OFFSET -21.527611 0.000000 0.000000
                    CHANNELS 3 Zrotation Xrotation Yrotation
                    JOINT RightForeArm
                    {
                        OFFSET -56.353916 0.000000 0.000000
                        CHANNELS 3 Zrotation Xrotation Yrotation
                        JOINT RightHand
                        {
                            OFFSET -47.774071 0.000000 0.000000
                            CHANNELS 3 Zrotation Xrotation Yrotation
                            End Site
                            {
                                OFFSET -26.556021 0.000000 0.000000
                            }
                        }
                    }
                }
            }
        }
    }
    JOINT LeftUpLeg
    {
        OFFSET 17.704014 0.000000 0.000000
        CHANNELS 3 Zrotation Xrotation Yrotation
        JOINT LeftLeg
        {
            OFFSET -0.000000 -81.181816 0.000000
            CHANNELS 3 Zrotation Xrotation Yrotation
            JOINT LeftFoot
            {
                OFFSET -0.000000 -62.821102 0.000000
                CHANNELS 3 Zrotation Xrotation Yrotation
                JOINT LeftToeBase
                {
                    OFFSET -0.000000 -11.507608 26.556021
                    CHANNELS 3 Zrotation Xrotation Yrotation
                    End Site
                    {
                        OFFSET -0.000000 0.000000 7.081605
                    }
                }
            }
        }
    }
    JOINT RightUpLeg
    {
        OFFSET -17.704014 0.000000 0.000000
        CHANNELS 3 Zrotation Xrotation Yrotation
        JOINT RightLeg
        {
            OFFSET -0.000000 -81.181816 0.000000
            CHANNELS 3 Zrotation Xrotation Yrotation
            JOINT RightFoot
            {
                OFFSET -0.000000 -62.821102 0.000000
                CHANNELS 3 Zrotation Xrotation Yrotation
                JOINT RightToeBase
                {
                    OFFSET -0.000000 -11.507608 26.556021
                    CHANNELS 3 Zrotation Xrotation Yrotation
                    End Site
                    {
                        OFFSET -0.000000 0.000000 7.081605
                    }
                }
            }
        }
    }
}
MOTION
Frames:    10
Frame Time:    0.008333
36.523266    160.260803    -101.283661    -1.469697    -0.469891    20.710287    -2.633486    -3.062394    -9.233230    -8.758307    0.816542    -2.982276    23.734903    9.135479    7.635058    -5.758575    -5.582304    5.256076    12.188298    6.817280    -16.148630    -36.638920    6.506966    -51.048344    -6.106168    -27.779770    -112.811005    -6.474920    -34.947388    -14.376406    -10.424089    3.451346    -18.273701    25.083149    24.097065    -0.147856    27.381027    20.489517    -5.593600    6.497814    22.341324    10.982125    7.565891    4.080875    3.239502    -9.041617    19.592764    -16.466375    5.678162    -21.518488    45.082821    0.000000    0.000000    0.000000    -12.937296    -27.655481    -4.415210    11.312479    26.396923    -13.674806    4.082336    14.512355    -11.674115    0.000000    0.000000    0.000000    
36.465080    160.250565    -101.284698    -1.493782    -0.492266    20.924383    -2.611520    -3.046716    -9.006306    -8.590921    0.840593    -2.906463    23.393688    8.913795    7.453722    -5.535469    -5.514872    5.088119    12.011753    6.741461    -16.193659    -36.612057    6.501331    -50.934780    -6.230521    -27.553078    -112.946632    -6.327296    -34.932060    -14.286175    -10.480100    3.365926    -17.973392    24.852785    24.030289    0.344165    27.209404    20.497091    -5.502111    6.420305    22.322689    11.163920    7.652452    4.012398    3.102795    -9.057567    19.659401    -16.541166    5.707645    -21.539835    45.075409    0.000000    0.000000    0.000000    -12.980670    -27.573299    -4.593201    11.308894    26.392157    -13.683683    4.095694    14.432431    -11.691107    0.000000    0.000000    0.000000    
36.412529    160.242630    -101.281189    -1.503902    -0.527272    21.128981    -2.515081    -3.106149    -8.697326    -8.637052    1.008304    -2.791017    23.196808    8.656947    7.245658    -5.332594    -5.493415    4.869530    12.026917    6.614318    -16.283457    -36.536198    6.605031    -50.929100    -6.219282    -27.586201    -112.962608    -6.457165    -34.935944    -14.317958    -10.397240    3.227467    -17.765554    24.463398    23.588221    0.891602    27.292137    20.656414    -5.554951    6.498040    22.497358    11.060423    7.731264    3.951469    2.949957    -9.072614    19.860901    -16.658180    5.739145    -21.670444    45.085808    0.000000    0.000000    0.000000    -13.034581    -27.475115    -4.749164    11.318603    26.386284    -13.706283    4.132192    14.353485    -11.695332    0.000000    0.000000    0.000000    
36.359699    160.232361    -101.278519    -1.507985    -0.563758    21.325937    -2.419485    -3.033542    -8.529902    -8.664447    0.949872    -2.741021    22.990482    8.441745    7.096988    -5.125167    -5.364837    4.728847    12.028145    6.617779    -16.115265    -36.486683    6.710710    -50.984806    -6.278320    -27.503330    -113.073509    -6.413443    -34.956608    -14.265687    -10.354344    3.121454    -17.333773    24.288605    23.808477    1.296105    26.848253    20.539738    -5.227498    6.702701    22.311577    11.143660    7.801510    3.902359    2.812437    -9.096640    19.928162    -16.713585    5.775339    -21.672323    45.085510    0.000000    0.000000    0.000000    -13.092271    -27.379436    -4.920069    11.328053    26.387478    -13.740619    4.132164    14.276439    -11.667574    0.000000    0.000000    0.000000    
36.307137    160.221619    -101.269829    -1.516476    -0.601143    21.523464    -2.335531    -2.965773    -8.291476    -8.673527    0.912448    -2.665738    22.806171    8.161232    6.917440    -4.929909    -5.203536    4.540066    12.046105    6.575811    -16.038698    -36.544956    6.764358    -51.051075    -6.414315    -27.279940    -113.168564    -6.310166    -34.951900    -14.135875    -10.287370    2.979349    -17.025635    24.005234    23.841990    1.766962    26.583750    20.446259    -5.058547    6.779754    22.185785    11.295903    7.877626    3.866640    2.652288    -9.152462    19.852024    -16.651623    5.771581    -21.599688    45.058350    0.000000    0.000000    0.000000    -13.141107    -27.286779    -5.126437    11.313053    26.405401    -13.739992    4.121992    14.197644    -11.632138    0.000000    0.000000    0.000000    
36.279221    160.209839    -101.268921    -1.523414    -0.630466    21.723404    -2.196820    -2.948632    -8.067367    -8.774356    0.925121    -2.590718    22.647396    7.927570    6.743034    -4.728922    -5.112031    4.363110    12.060135    6.485015    -15.974850    -36.520733    6.907701    -51.060585    -6.439034    -27.222971    -113.230377    -6.315372    -34.939873    -14.120706    -10.215931    2.861451    -16.667231    23.731480    23.657927    2.235228    26.353361    20.287304    -4.877971    6.878235    22.000671    11.511456    7.938603    3.810338    2.485793    -9.164651    20.040255    -16.781492    5.832803    -21.720766    45.087650    0.000000    0.000000    0.000000    -13.221821    -27.196951    -5.313036    11.346203    26.412025    -13.757751    4.116252    14.137461    -11.624991    0.000000    0.000000    0.000000    
36.220314    160.199280    -101.258362    -1.529066    -0.662102    21.895302    -2.099637    -2.937510    -7.814776    -8.816816    0.934692    -2.506493    22.436384    7.740124    6.541543    -4.505218    -5.052862    4.175284    12.042686    6.437137    -15.951359    -36.475010    6.998578    -51.068832    -6.475404    -27.169559    -113.289696    -6.302541    -34.948334    -14.088836    -10.205319    2.712745    -16.309900    23.491014    23.672308    2.663653    26.130024    20.231890    -4.664526    6.874312    21.895948    11.614182    8.013768    3.778202    2.369276    -9.196556    20.083620    -16.830433    5.850979    -21.736227    45.080933    0.000000    0.000000    0.000000    -13.263842    -27.122757    -5.470453    11.350465    26.434656    -13.750484    4.104659    14.059819    -11.611459    0.000000    0.000000    0.000000    
36.165596    160.191071    -101.251053    -1.532712    -0.691232    22.067493    -1.990574    -2.891742    -7.552772    -8.867244    0.914633    -2.421710    22.213938    7.444039    6.352967    -4.258020    -4.883544    3.988578    12.029423    6.362189    -15.876488    -36.452435    7.149777    -51.129974    -6.496182    -27.133406    -113.349350    -6.287195    -34.954163    -14.040178    -10.175800    2.617861    -16.053246    23.171825    23.523102    3.255115    25.984165    20.210260    -4.605425    6.947245    21.868366    11.708867    8.076940    3.745797    2.283407    -9.206779    20.120947    -16.872288    5.856483    -21.742664    45.038284    0.000000    0.000000    0.000000    -13.312710    -27.052633    -5.657148    11.350000    26.462969    -13.742603    4.079448    14.007295    -11.594729    0.000000    0.000000    0.000000    
36.108978    160.183487    -101.244972    -1.534261    -0.703187    22.229216    -1.886312    -2.890716    -7.288308    -8.962990    0.915687    -2.333746    22.054575    7.221148    6.152469    -4.030293    -4.774289    3.793724    12.054389    6.255956    -15.858204    -36.509693    7.160266    -51.110237    -6.613031    -26.871668    -113.403236    -6.204681    -34.878273    -14.023075    -10.122354    2.457384    -15.709290    22.914291    23.600019    3.725769    25.725525    20.105541    -4.461146    6.944988    21.738350    11.964868    8.133072    3.707494    2.180066    -9.231477    20.137096    -16.866476    5.860248    -21.743530    44.973793    0.000000    0.000000    0.000000    -13.363669    -27.002901    -5.817064    11.360156    26.486506    -13.737076    4.065619    13.952950    -11.610143    0.000000    0.000000    0.000000    
36.059048    160.186188    -101.243187    -1.525936    -0.702376    22.382536    -1.773636    -2.881585    -7.028071    -9.069711    0.873268    -2.250651    21.893658    7.034571    5.955976    -3.839574    -4.674658    3.603712    12.060024    6.250335    -15.806969    -36.467812    7.234614    -51.171371    -6.624969    -26.835522    -113.451317    -6.203753    -34.868725    -14.006569    -10.036700    2.389331    -15.347336    22.601322    23.619478    4.226891    25.464439    19.980103    -4.293876    7.103615    21.589977    12.056413    8.162070    3.657306    2.102429    -9.226935    20.156494    -16.883501    5.818639    -21.736050    44.920887    0.000000    0.000000    0.000000    -13.428729    -26.964476    -5.978516    11.362607    26.510565    -13.724548    4.059155    13.913059    -11.622764    0.000000    0.000000    0.000000    
